<svg id="visual" viewBox="0 0 900 600" width="900" height="600" xmlns="http://www.w3.org/2000/svg" xmlns:xlink="http://www.w3.org/1999/xlink" version="1.1"><rect x="0" y="0" width="900" height="600" fill="#eaf6ff"></rect><defs><linearGradient id="grad1_0" x1="33.3%" y1="100%" x2="100%" y2="0%"><stop offset="20%" stop-color="#eaf6ff" stop-opacity="1"></stop><stop offset="80%" stop-color="#eaf6ff" stop-opacity="1"></stop></linearGradient></defs><defs><linearGradient id="grad2_0" x1="0%" y1="100%" x2="66.7%" y2="0%"><stop offset="20%" stop-color="#eaf6ff" stop-opacity="1"></stop><stop offset="80%" stop-color="#eaf6ff" stop-opacity="1"></stop></linearGradient></defs><g transform="translate(900, 600)"><path d="M-270.4 0C-262 -46.3 -253.6 -92.5 -232.1 -134C-210.6 -175.5 -176.1 -212.2 -135.2 -234.2C-94.3 -256.1 -47.2 -263.3 0 -270.4L0 0Z" fill="#F7770F"></path></g><g transform="translate(0, 0)"><path d="M270.4 0C259.7 44.9 249 89.8 227.8 131.5C206.6 173.2 174.9 211.6 135.2 234.2C95.5 256.8 47.8 263.6 0 270.4L0 0Z" fill="#F7770F"></path></g></svg>